<svg xmlns="http://www.w3.org/2000/svg" width="402" height="243" fill="none">
  <path fill="#1E1E1E" d="m6.6 179.6 1 2c.7 1.2 1.2 2.6 1.7 4.2s1 3.3 1.8 5.2a62 62 0 0 0 3.1 6.9c1.4 2.7 2.8 2.4 4.2-.9 1.4-3.3 2.6-9.4 3.6-18.6a4938 4938 0 0 1 6.1-51.2 1222.7 1222.7 0 0 1 7-47l2.6-16.5a176.8 176.8 0 0 0 1.7-17.3c0-1.7-.2-3-.5-3.9l-.5-2a5.8 5.8 0 0 1 1.6-4 5.8 5.8 0 0 1 2.4-1.7 6.1 6.1 0 0 1 7.5 3l.5 1.3c0 .5-.2 1.5-.7 3a8.4 8.4 0 0 0-.2 5c.5 1.8.6 6.3.5 13.5a289.8 289.8 0 0 0 1 34.7 95.1 95.1 0 0 0 5 21.8c.7 1.7 1.1 1.1 1.2-1.7a50 50 0 0 1 2-10.9 284 284 0 0 0 4-18 925.2 925.2 0 0 0 8.5-50.2A309.5 309.5 0 0 1 75 18.2c.5-2 2.2-4.2 5.2-6.8 3-2.7 5.5-3 7.2-1 1.8 2 2.8 3.9 3 5.7a3513.1 3513.1 0 0 1 1.8 44.2A3019.4 3019.4 0 0 0 96 142a450.7 450.7 0 0 0 6 52.8l1.8 11.3c.4 2.4.5 4 .3 4.4-.3.6-.4 1-.3 1.3a4.2 4.2 0 0 1-.3 2 4.1 4.1 0 0 1-1.3 1.8 4.3 4.3 0 0 1-3.9.8 4.5 4.5 0 0 1-1.8-1 4 4 0 0 1-1.1-1.7 9 9 0 0 1 0-2.8 19.4 19.4 0 0 0 .3-3.5c0-.3.2-.6.3-.8a2.5 2.5 0 0 1 1.3-1 2.5 2.5 0 0 1 1.7-.2 2.6 2.6 0 0 1-.9 5.1 2.5 2.5 0 0 1-1.5-.6l-.6-.6a2.8 2.8 0 0 1-.3-1.6 2.7 2.7 0 0 1 .7-1.5 2.5 2.5 0 0 1 1.4-.8 2.5 2.5 0 0 1 1.7.3 2.6 2.6 0 0 1 1.1 1.2l.2.3 1.4 2c1 1.4 1.5 2.3 1.5 2.6a4.2 4.2 0 0 1-.3 2 4.1 4.1 0 0 1-1.2 1.8 4.3 4.3 0 0 1-3.9.8 4.5 4.5 0 0 1-1.8-1 4 4 0 0 1-1.1-1.7c-.1-.3-.6-.6-1.3-.7-.7-.2-1.5-1.6-2.3-4.3-.7-2.7-1.6-6.7-2.6-12a539.4 539.4 0 0 1-6.3-54 2467.5 2467.5 0 0 1-3.5-82 23676.3 23676.3 0 0 0-1.5-43c-.2-2 .4-2.4 1.8-1.3a11 11 0 0 0 5.3 1.8c2.1.2 3 1.1 2.6 2.7a257.4 257.4 0 0 0-3.3 17.3 3364 3364 0 0 1-4.9 30.2A673.1 673.1 0 0 1 71 109a53 53 0 0 1-6 13.7c-2.4 4-5.6 6-9.4 6-3.8 0-7-1.9-9.4-5.4a37.2 37.2 0 0 1-5.3-11.8 171.4 171.4 0 0 1-3.6-32.3c-.2-5.5-.1-11.7.1-18.8a1562.7 1562.7 0 0 0 .8-17 33 33 0 0 0 .4-4.4 6 6 0 0 1 2.5-3.5 6.3 6.3 0 0 1 2.7-1 5.6 5.6 0 0 1 2.9.4 5.8 5.8 0 0 1 3.1 2.8l.6 1.4c0 .5.2.7.3.7l.6 3c.3 1.9.4 3.6.3 5a429.8 429.8 0 0 1-2 17.8 3701.5 3701.5 0 0 1-6 37.4 1182 1182 0 0 0-7 51.8c-.9 7.6-2 16.6-3.4 26.8a69.2 69.2 0 0 1-5 20.9 18 18 0 0 1-6.4 7.5c-2.3 1.4-5.2 1.2-8.5-.6A15.6 15.6 0 0 1 6 202a64.8 64.8 0 0 1-4.7-14c-.5-2.3-.6-4.1-.3-5.5a24 24 0 0 0 .5-3c0-.3 0-.5.2-.7l.3-.5a2.6 2.6 0 0 1 4.3.4l.2.6.1.3Z"/>
  <path fill="#1E1E1E" d="M48 175.6h-1l-.8-.3a2.5 2.5 0 0 1-1.1-1.2 2.6 2.6 0 0 1-.2-1.7l.3-.7a2.5 2.5 0 0 1 1.3-1.1 2.5 2.5 0 0 1 1.6 0 2.5 2.5 0 0 1 1.4.8 2.5 2.5 0 0 1 .5 1.6l-.1.8-.4.8-.6.5-.8.4c-.3 0-.5.1-.8 0l-.8-.1a2.5 2.5 0 0 1-1.3-1l-.3-.8v-.9c0-.3 0-.5.2-.8a2.6 2.6 0 0 1 1.1-1.2l.8-.3h1.3c.2 0 .4 0 .6.2a2.5 2.5 0 0 1 1 .7l.4.5a2.6 2.6 0 0 1 .3 1.2v.6a2.6 2.6 0 0 1-2.6 2Zm22.9-.8-.3.3-.7.6-.7.4a2.6 2.6 0 0 1-3.3-1.9 2.6 2.6 0 0 1 .2-1.6 2.7 2.7 0 0 1 1-1.3 2.6 2.6 0 0 1 3.2.4 2.6 2.6 0 0 1 .4 3.2l-.5.6a2.7 2.7 0 0 1-1.6.7 2.5 2.5 0 0 1-2.6-1.7 2.5 2.5 0 0 1 0-1.7c0-.3.2-.5.3-.7l.3-.4.3-.3.5-.5a2.9 2.9 0 0 1 1.1-.5h.7l.6.1a2.5 2.5 0 0 1 1.7 1.7 2.4 2.4 0 0 1-.1 1.9 2.9 2.9 0 0 1-.5.8Zm89.9 27.7-1.5 1.3a17 17 0 0 1-5.4 2.5 15 15 0 0 1-9.2-.3 35.9 35.9 0 0 1-9.3-4.4 46 46 0 0 1-7.9-6.7 29 29 0 0 1-6-13.2 35 35 0 0 1-.3-17.6c1.4-5.6 5-11 10.7-16.5a61.2 61.2 0 0 1 17.9-12.3 37.2 37.2 0 0 1 21.7-1.8c8.2 1.5 15 4.4 20.1 8.7a28.6 28.6 0 0 1 9.5 19c1.1 8.3.4 15.9-2.1 22.7a30.2 30.2 0 0 1-15 16c-7.6 4-14 6.5-19.1 7.3a505.5 505.5 0 0 0-14.3 2.5l-.8-.1a2.5 2.5 0 0 1-1.4-1l-.4-.7a2.7 2.7 0 0 1 0-1.7l.5-.7a2.5 2.5 0 0 1 1.4-.9h.8l.8.1a2.7 2.7 0 0 1 1.3 1.1l.3.8a2.5 2.5 0 0 1-.3 1.7 2.4 2.4 0 0 1-1.1 1.1 2.6 2.6 0 1 1-2-4.7l.3-.2 3-.6c2.1-.3 5.3-1 9.7-2 4.4-1 9.2-3.5 14.3-7.5 5.1-4 8.6-8.3 10.6-13a42.5 42.5 0 0 0 2.7-16.4c-.1-6.2-1.8-10.6-5-13.3a33.5 33.5 0 0 0-13.6-6.4c-6-1.5-11.3-1.3-16 .7-4.6 2-9.2 4.9-13.8 8.6a25 25 0 0 0-8.5 10.7 24.2 24.2 0 0 0-.7 11.4c.6 4.1 1.8 7.1 3.6 9a47.8 47.8 0 0 0 16.3 11 31.2 31.2 0 0 0 8.1.8 2.5 2.5 0 0 1 1.1.6l.4.5a2.7 2.7 0 0 1 .4 1.8l-.2.6-.3.6a2.4 2.4 0 0 1-1 .8h-.3Zm84.5 0-1.5 1.3a17 17 0 0 1-5.4 2.5 15 15 0 0 1-9.2-.3 35.9 35.9 0 0 1-9.3-4.4 46 46 0 0 1-7.9-6.7 29 29 0 0 1-6-13.2 35 35 0 0 1-.3-17.6c1.4-5.6 5-11 10.7-16.5a61.2 61.2 0 0 1 17.9-12.3 37.2 37.2 0 0 1 21.7-1.8c8.2 1.5 15 4.4 20.1 8.7a28.6 28.6 0 0 1 9.5 19c1.1 8.3.4 15.9-2.1 22.7a30.2 30.2 0 0 1-15 16c-7.6 4-14 6.5-19.1 7.3a505.5 505.5 0 0 0-14.3 2.5l-.8-.1a2.5 2.5 0 0 1-1.4-1l-.4-.7a2.7 2.7 0 0 1 0-1.7l.5-.7a2.5 2.5 0 0 1 1.4-.9h.8l.8.1a2.7 2.7 0 0 1 1.3 1.1l.3.8a2.5 2.5 0 0 1-.3 1.7 2.4 2.4 0 0 1-1.1 1.1 2.6 2.6 0 1 1-2-4.7l.3-.2 3-.6c2.1-.3 5.3-1 9.7-2 4.4-1 9.2-3.5 14.3-7.5 5.1-4 8.6-8.3 10.6-13a42.5 42.5 0 0 0 2.7-16.4c-.1-6.2-1.8-10.6-5-13.3a33.5 33.5 0 0 0-13.6-6.4c-6-1.5-11.3-1.3-16 .7-4.6 2-9.2 4.9-13.8 8.6a25 25 0 0 0-8.5 10.7 24.2 24.2 0 0 0-.7 11.4c.6 4.1 1.8 7.1 3.6 9a47.8 47.8 0 0 0 16.3 11 31.2 31.2 0 0 0 8.1.8 2.5 2.5 0 0 1 1.1.6l.4.5a2.7 2.7 0 0 1 .4 1.8l-.2.6-.3.6a2.4 2.4 0 0 1-1 .8h-.3Zm89-1-1.5 1.3a17 17 0 0 1-5.4 2.5 15 15 0 0 1-9.2-.3 35.9 35.9 0 0 1-9.3-4.4 46 46 0 0 1-7.9-6.7 29 29 0 0 1-6-13.2 35 35 0 0 1-.3-17.6c1.4-5.6 5-11 10.7-16.5a61.2 61.2 0 0 1 17.9-12.3 37.2 37.2 0 0 1 21.7-1.8c8.2 1.5 15 4.4 20.1 8.7a28.6 28.6 0 0 1 9.5 19c1.1 8.3.4 15.9-2.1 22.7a30.2 30.2 0 0 1-15 16c-7.6 4-14 6.5-19.1 7.3a505.5 505.5 0 0 0-14.3 2.5l-.8-.1a2.5 2.5 0 0 1-1.4-1l-.4-.7a2.7 2.7 0 0 1 0-1.7l.5-.7a2.5 2.5 0 0 1 1.4-.9h.8l.8.1a2.7 2.7 0 0 1 1.3 1.1l.3.8a2.5 2.5 0 0 1-.3 1.7 2.4 2.4 0 0 1-1.1 1.1 2.6 2.6 0 1 1-2-4.7l.3-.2 3-.6c2.1-.3 5.3-1 9.7-2 4.4-1 9.2-3.5 14.3-7.5 5.1-4 8.6-8.3 10.6-13a42.5 42.5 0 0 0 2.7-16.4c-.1-6.2-1.8-10.6-5-13.3a33.5 33.5 0 0 0-13.6-6.4c-6-1.5-11.3-1.3-16 .7-4.6 2-9.2 4.9-13.8 8.6a25 25 0 0 0-8.5 10.7 24.2 24.2 0 0 0-.7 11.4c.6 4.1 1.8 7.1 3.6 9a47.8 47.8 0 0 0 16.3 11 31.2 31.2 0 0 0 8.1.8 2.5 2.5 0 0 1 1.1.6l.4.5a2.7 2.7 0 0 1 .4 1.8l-.2.6-.3.6a2.4 2.4 0 0 1-1 .8h-.3Z"/>
  <path fill="#1E1E1E" d="m401.3 4.3-.4 2.5a62 62 0 0 1-1.4 6.6 130.5 130.5 0 0 0-3.5 16.9l-5 26.4c-2.6 12.6-5 24.6-7 36.3a592.8 592.8 0 0 0-9.2 99.2c0 8.5-.2 16-.3 22.4a168 168 0 0 0 0 14.4 39.2 39.2 0 0 0 1.6 10.5 2.6 2.6 0 0 1-.9 2.3 2.7 2.7 0 0 1-1.5.6 2.7 2.7 0 0 1-1.6-.4l-.6-.6a2.7 2.7 0 0 1-.6-1.6 2.7 2.7 0 0 1 .6-1.5 2.6 2.6 0 0 1 2.2-1l.8.1.7.4a2.7 2.7 0 0 1 .9 1.5v.8c0 .3 0 .5-.2.8a2.5 2.5 0 0 1-1.1 1.2 2.5 2.5 0 0 1-1.7.3l-.8-.3a2.7 2.7 0 0 1-1.1-1.2l-.2-.4-1-3-2-7.8-3-14.7c-1.4-6.6-2.1-14.3-2.3-23a583.9 583.9 0 0 1 15.7-138 703 703 0 0 1 8.9-37.1c.6-1.8 1.6-4.3 3.2-7.4a19.3 19.3 0 0 1 6.3-8.1l.5-.5a2.6 2.6 0 0 1 3.8.6 2.7 2.7 0 0 1 .2 2.4l-.1.3Z"/>
</svg>
